<?xml version="1.0" encoding="UTF-8" standalone="no"?>
<svg
   version="1.1"
   id="svg4245"
   height="102.87459"
   width="279.70209"
   xmlns="http://www.w3.org/2000/svg"
   xmlns:svg="http://www.w3.org/2000/svg"
   xmlns:rdf="http://www.w3.org/1999/02/22-rdf-syntax-ns#"
   xmlns:cc="http://creativecommons.org/ns#"
   xmlns:dc="http://purl.org/dc/elements/1.1/">
  <defs
     id="defs4247" />
  <metadata
     id="metadata4250">
    <rdf:RDF>
      <cc:Work
         rdf:about="">
        <dc:format>image/svg+xml</dc:format>
        <dc:type
           rdf:resource="http://purl.org/dc/dcmitype/StillImage" />
      </cc:Work>
    </rdf:RDF>
  </metadata>
  <g
     id="g7301"
     transform="translate(1.187307,-327.81773)">
    <path
       d="m 51.99724,383.98988 h -17.4694 v -17.48077 h -5.80339 v 17.48077 h -17.4694 v -40.43532 h 17.4694 v 17.12762 h 5.80339 v -17.12762 h 17.4694 z"
       id="path5532" />
    <path
       d="M 110.64642,383.98988 H 93.23625 v -34.72611 h -5.86261 v 20.24708 l -7.1062,14.47903 H 58.29745 l 20.37109,-40.43532 h 31.97788 z"
       id="path5534" />
    <path
       d="m 160.07791,383.98988 h -40.38688 v -40.43532 h 17.4694 v 34.66724 h 5.80339 v -11.53612 h 17.11409 z"
       id="path5536" />
    <path
       d="m 210.48372,372.39488 q 0,2.6486 -0.82905,4.82634 -0.82906,2.11888 -2.36873,3.64918 -1.48047,1.47145 -3.67154,2.29546 -2.13185,0.82402 -4.73747,0.82402 h -20.37109 q -2.72404,0 -4.91512,-0.88288 -2.13185,-0.88287 -3.67153,-2.47203 -1.48046,-1.64801 -2.30951,-3.88461 -0.76984,-2.29545 -0.76984,-5.00291 h 18.59454 v 6.47435 h 5.86262 v -12.30127 h -24.45716 v -10.82984 q 0,-2.6486 0.82906,-4.76748 0.82906,-2.11888 2.36873,-3.59032 1.53967,-1.53031 3.67153,-2.35433 2.13186,-0.824 4.79668,-0.824 h 20.37109 q 2.60562,0 4.73747,0.824 2.19107,0.82402 3.67154,2.35433 1.53967,1.47144 2.36873,3.59032 0.82905,2.11888 0.82905,4.76748 z M 191.297,360.15246 v -10.88869 h -5.86262 v 10.88869 z"
       id="path5538" />
    <path
       d="m 265.24207,383.98988 h -20.54875 l -3.13857,-6.35665 v -28.36946 l 2.9017,-5.70921 h 20.13422 l -10.95538,19.18764 z m -28.89853,0 h -17.46939 v -40.43532 h 17.46939 z"
       id="path5540" />
    <path
       d="m 34.392,412.33483 h -5.87293 v -7.36118 H 17.17234 v 7.36118 H 11.24238 V 393.2471 h 5.92996 v 6.76202 H 28.51907 V 393.2471 H 34.392 Z"
       id="path4520" />
    <path
       d="m 48.15851,412.33483 3.56367,-4.90746 h 4.78958 q 0.85529,0 1.76759,0 0.9408,0 1.62503,0.0571 -0.39914,-0.51357 -0.94082,-1.28393 -0.51316,-0.79889 -0.99782,-1.48366 l -3.42113,-5.05011 -8.95195,12.66809 h -6.9848 l 12.23054,-17.2617 q 0.59868,-0.82742 1.51099,-1.48366 0.9123,-0.65622 2.30926,-0.65622 1.33994,0 2.22374,0.6277 0.9123,0.59916 1.5395,1.51218 l 11.91693,17.2617 z"
       id="path4522" />
    <path
       d="m 95.81689,407.42737 -3.79176,4.90746 h -9.57915 q -2.48032,0 -4.59002,-0.74182 -2.10968,-0.74183 -3.64919,-2.02575 -1.511,-1.31247 -2.3948,-3.08143 -0.85528,-1.79751 -0.85528,-3.88032 0,-2.08282 0.85528,-3.79472 0.8838,-1.74043 2.3948,-2.9673 1.53951,-1.2554 3.64919,-1.91163 2.1097,-0.68476 4.59002,-0.68476 h 13.37091 l -3.79176,4.96452 h -9.57915 q -1.19739,0 -2.22373,0.34239 -1.02634,0.34237 -1.76759,0.97007 -0.74124,0.59917 -1.16888,1.45512 -0.42765,0.85595 -0.42765,1.88309 0,1.02715 0.39914,1.8831 0.42764,0.82742 1.16888,1.42659 0.76976,0.59916 1.7961,0.94155 1.02634,0.31384 2.22373,0.31384 z"
       id="path4524" />
    <path
       d="m 124.01983,412.33483 h -8.92344 l -5.7589,-5.02159 q -1.48249,-1.28392 -2.28075,-1.99722 -0.76975,-0.71328 -1.25441,-1.19832 0.0285,0.65622 0.057,1.36952 0.0285,0.68476 0.0285,1.36952 v 5.47809 H 99.95787 V 393.2471 h 5.92996 v 4.42241 q 0,0.8845 -0.0285,1.74044 -0.0285,0.85595 -0.0855,1.59778 0.57019,-0.51357 1.36846,-1.2554 0.82676,-0.77035 2.13819,-1.85456 l 5.50231,-4.65067 h 8.55282 l -7.2984,5.47809 q -0.94081,0.7133 -1.68205,1.2554 -0.71273,0.5421 -1.28292,0.94155 -0.57019,0.39944 -1.05485,0.71329 -0.45615,0.31385 -0.9123,0.59916 0.82677,0.57064 1.99566,1.42659 1.16888,0.85596 3.02199,2.36814 z"
       id="path4526" />
    <path
       d="m 145.70214,400.86507 q 3.50666,0 5.33125,1.31246 1.8246,1.28393 1.8246,3.90886 0,1.45511 -0.45615,2.62491 -0.45615,1.1698 -1.45398,1.9687 -0.99783,0.79888 -2.56584,1.22686 -1.53951,0.42797 -3.70622,0.42797 h -17.76135 l 3.79174,-4.90746 h 14.42576 q 1.05485,0 1.53951,-0.31384 0.48466,-0.34239 0.48466,-1.08421 0,-0.74183 -0.48466,-1.05567 -0.48466,-0.31385 -1.53951,-0.31385 h -10.37742 q -1.85311,0 -3.19305,-0.39945 -1.33995,-0.39945 -2.22374,-1.11273 -0.88378,-0.7133 -1.31142,-1.71191 -0.42764,-1.02714 -0.42764,-2.25401 0,-1.34099 0.45615,-2.4252 0.48466,-1.11274 1.45397,-1.88309 0.99783,-0.77037 2.53734,-1.19834 1.56802,-0.42797 3.73472,-0.42797 h 16.56396 l -3.79174,4.96452 h -13.22836 q -1.02634,0 -1.53951,0.28532 -0.48466,0.28531 -0.48466,1.02714 0,0.74182 0.48466,1.05568 0.51317,0.28531 1.53951,0.28531 z"
       id="path4528" />
    <path
       d="m 182.71626,400.40857 q 0,1.59777 -0.6272,2.91023 -0.62721,1.28394 -1.85311,2.19695 -1.19739,0.91301 -2.93647,1.42658 -1.73907,0.51358 -3.9628,0.51358 h -9.97829 v 4.87892 h -5.87294 v -9.75785 h 16.42142 q 1.36844,0 2.10969,-0.59917 0.76975,-0.59917 0.76975,-1.59778 0,-0.99861 -0.76975,-1.56924 -0.74125,-0.59917 -2.10969,-0.59917 h -16.42142 l 3.90579,-4.96452 h 11.97395 q 2.22373,0 3.9628,0.5421 1.73908,0.51357 2.93647,1.45512 1.19739,0.94154 1.8246,2.25401 0.6272,1.31246 0.6272,2.91024 z"
       id="path4530" />
    <path
       d="m 191.3404,412.33483 3.56367,-4.90746 h 4.78957 q 0.85528,0 1.76759,0 0.94081,0 1.62503,0.0571 -0.39913,-0.51357 -0.94081,-1.28393 -0.51317,-0.79889 -0.99783,-1.48366 l -3.42112,-5.05011 -8.95195,12.66809 h -6.9848 l 12.23052,-17.2617 q 0.5987,-0.82742 1.511,-1.48366 0.91231,-0.65622 2.30927,-0.65622 1.33994,0 2.22372,0.6277 0.91231,0.59916 1.53951,1.51218 l 11.91693,17.2617 z"
       id="path4532" />
    <path
       d="m 238.99876,407.42737 -3.79175,4.90746 h -9.57916 q -2.48031,0 -4.59001,-0.74182 -2.10969,-0.74183 -3.64919,-2.02575 -1.511,-1.31247 -2.3948,-3.08143 -0.85528,-1.79751 -0.85528,-3.88032 0,-2.08282 0.85528,-3.79472 0.8838,-1.74043 2.3948,-2.9673 1.5395,-1.2554 3.64919,-1.91163 2.1097,-0.68476 4.59001,-0.68476 h 13.37091 l -3.79175,4.96452 h -9.57916 q -1.19738,0 -2.22372,0.34239 -1.02634,0.34237 -1.76759,0.97007 -0.74124,0.59917 -1.16888,1.45512 -0.42765,0.85595 -0.42765,1.88309 0,1.02715 0.39914,1.8831 0.42764,0.82742 1.16888,1.42659 0.76976,0.59916 1.7961,0.94155 1.02634,0.31384 2.22372,0.31384 z"
       id="path4534" />
    <path
       d="m 265.29158,407.42737 -3.79176,4.90746 H 243.13978 V 393.2471 h 22.09478 l -3.82025,4.96452 h -12.34458 v 2.28254 h 15.10998 l -3.39261,4.33682 h -11.71737 v 2.59639 z"
       id="path4536" />
  </g>
</svg>
